<svg width="113" height="57" viewBox="0 0 113 57" fill="none" xmlns="http://www.w3.org/2000/svg">
<g clip-path="url(#clip0_0_244)">
<path d="M25.9375 19.125C21.332 19.125 17.4355 22.1426 16.1113 26.3027C18.0801 25.3066 20.3008 24.75 22.6562 24.75H27.8125C28.3281 24.75 28.75 25.1719 28.75 25.6875C28.75 26.2031 28.3281 26.625 27.8125 26.625H26.875H22.6562C21.6836 26.625 20.7402 26.7363 19.832 26.9414C18.3145 27.2871 16.9023 27.9023 15.6484 28.7402C12.2441 31.0078 10 34.8809 10 39.2813V40.2188C10 40.998 10.627 41.625 11.4062 41.625C12.1855 41.625 12.8125 40.998 12.8125 40.2188V39.2813C12.8125 36.4277 14.0254 33.8613 15.9648 32.0625C17.125 36.4863 21.1504 39.75 25.9375 39.75H25.9961C33.7363 39.709 40 32.0801 40 22.6758C40 20.1797 39.5605 17.8066 38.7637 15.668C38.6113 15.2637 38.0195 15.2813 37.8145 15.6621C36.7129 17.7246 34.5332 19.125 32.0312 19.125H25.9375Z" fill="#0F7538"/>
</g>
<path d="M58.88 17.692C58.624 17.2227 58.272 16.8653 57.824 16.62C57.376 16.3747 56.8533 16.252 56.256 16.252C55.5947 16.252 55.008 16.4013 54.496 16.7C53.984 16.9987 53.584 17.4253 53.296 17.98C53.008 18.5347 52.864 19.1747 52.864 19.9C52.864 20.6467 53.008 21.2973 53.296 21.852C53.5947 22.4067 54.0053 22.8333 54.528 23.132C55.0507 23.4307 55.6587 23.58 56.352 23.58C57.2053 23.58 57.904 23.356 58.448 22.908C58.992 22.4493 59.3493 21.8147 59.52 21.004H55.68V19.292H61.728V21.244C61.5787 22.0227 61.2587 22.7427 60.768 23.404C60.2773 24.0653 59.6427 24.5987 58.864 25.004C58.096 25.3987 57.232 25.596 56.272 25.596C55.1947 25.596 54.2187 25.356 53.344 24.876C52.48 24.3853 51.7973 23.708 51.296 22.844C50.8053 21.98 50.56 20.9987 50.56 19.9C50.56 18.8013 50.8053 17.82 51.296 16.956C51.7973 16.0813 52.48 15.404 53.344 14.924C54.2187 14.4333 55.1893 14.188 56.256 14.188C57.5147 14.188 58.608 14.4973 59.536 15.116C60.464 15.724 61.104 16.5827 61.456 17.692H58.88ZM65.6253 18.012C65.9133 17.5427 66.2866 17.1747 66.7453 16.908C67.2146 16.6413 67.7479 16.508 68.3453 16.508V18.86H67.7533C67.0493 18.86 66.5159 19.0253 66.1533 19.356C65.8013 19.6867 65.6253 20.2627 65.6253 21.084V25.5H63.3853V16.636H65.6253V18.012ZM78.094 20.876C78.094 21.196 78.0727 21.484 78.03 21.74H71.55C71.6033 22.38 71.8273 22.8813 72.222 23.244C72.6167 23.6067 73.102 23.788 73.678 23.788C74.51 23.788 75.102 23.4307 75.454 22.716H77.87C77.614 23.5693 77.1233 24.2733 76.398 24.828C75.6727 25.372 74.782 25.644 73.726 25.644C72.8727 25.644 72.1047 25.4573 71.422 25.084C70.75 24.7 70.222 24.1613 69.838 23.468C69.4647 22.7747 69.278 21.9747 69.278 21.068C69.278 20.1507 69.4647 19.3453 69.838 18.652C70.2113 17.9587 70.734 17.4253 71.406 17.052C72.078 16.6787 72.8513 16.492 73.726 16.492C74.5687 16.492 75.3207 16.6733 75.982 17.036C76.654 17.3987 77.1713 17.916 77.534 18.588C77.9073 19.2493 78.094 20.012 78.094 20.876ZM75.774 20.236C75.7633 19.66 75.5553 19.2013 75.15 18.86C74.7447 18.508 74.2487 18.332 73.662 18.332C73.1073 18.332 72.638 18.5027 72.254 18.844C71.8807 19.1747 71.6513 19.6387 71.566 20.236H75.774ZM87.969 20.876C87.969 21.196 87.9477 21.484 87.905 21.74H81.425C81.4783 22.38 81.7023 22.8813 82.097 23.244C82.4917 23.6067 82.977 23.788 83.553 23.788C84.385 23.788 84.977 23.4307 85.329 22.716H87.745C87.489 23.5693 86.9983 24.2733 86.273 24.828C85.5477 25.372 84.657 25.644 83.601 25.644C82.7477 25.644 81.9797 25.4573 81.297 25.084C80.625 24.7 80.097 24.1613 79.713 23.468C79.3397 22.7747 79.153 21.9747 79.153 21.068C79.153 20.1507 79.3397 19.3453 79.713 18.652C80.0863 17.9587 80.609 17.4253 81.281 17.052C81.953 16.6787 82.7263 16.492 83.601 16.492C84.4437 16.492 85.1957 16.6733 85.857 17.036C86.529 17.3987 87.0463 17.916 87.409 18.588C87.7823 19.2493 87.969 20.012 87.969 20.876ZM85.649 20.236C85.6383 19.66 85.4303 19.2013 85.025 18.86C84.6197 18.508 84.1237 18.332 83.537 18.332C82.9823 18.332 82.513 18.5027 82.129 18.844C81.7557 19.1747 81.5263 19.6387 81.441 20.236H85.649ZM94.516 16.508C95.572 16.508 96.4253 16.844 97.076 17.516C97.7267 18.1773 98.052 19.1053 98.052 20.3V25.5H95.812V20.604C95.812 19.9 95.636 19.3613 95.284 18.988C94.932 18.604 94.452 18.412 93.844 18.412C93.2253 18.412 92.7347 18.604 92.372 18.988C92.02 19.3613 91.844 19.9 91.844 20.604V25.5H89.604V16.636H91.844V17.74C92.1427 17.356 92.5213 17.0573 92.98 16.844C93.4493 16.62 93.9613 16.508 94.516 16.508ZM55.008 32.332C56.1813 32.332 57.2107 32.5613 58.096 33.02C58.992 33.4787 59.68 34.1347 60.16 34.988C60.6507 35.8307 60.896 36.812 60.896 37.932C60.896 39.052 60.6507 40.0333 60.16 40.876C59.68 41.708 58.992 42.3533 58.096 42.812C57.2107 43.2707 56.1813 43.5 55.008 43.5H51.104V32.332H55.008ZM54.928 41.596C56.1013 41.596 57.008 41.276 57.648 40.636C58.288 39.996 58.608 39.0947 58.608 37.932C58.608 36.7693 58.288 35.8627 57.648 35.212C57.008 34.5507 56.1013 34.22 54.928 34.22H53.344V41.596H54.928ZM70.9408 34.636V43.5H68.6848V42.38C68.3968 42.764 68.0181 43.068 67.5488 43.292C67.0901 43.5053 66.5888 43.612 66.0448 43.612C65.3514 43.612 64.7381 43.468 64.2048 43.18C63.6714 42.8813 63.2501 42.4493 62.9408 41.884C62.6421 41.308 62.4928 40.6253 62.4928 39.836V34.636H64.7328V39.516C64.7328 40.22 64.9088 40.764 65.2608 41.148C65.6128 41.5213 66.0928 41.708 66.7008 41.708C67.3194 41.708 67.8048 41.5213 68.1568 41.148C68.5088 40.764 68.6848 40.22 68.6848 39.516V34.636H70.9408ZM78.3989 43.5L75.3909 39.724V43.5H73.1509V31.66H75.3909V38.396L78.3669 34.636H81.2789L77.3749 39.084L81.3109 43.5H78.3989ZM81.9186 39.036C81.9186 38.14 82.0946 37.3453 82.4466 36.652C82.8093 35.9587 83.2946 35.4253 83.9026 35.052C84.5213 34.6787 85.2093 34.492 85.9666 34.492C86.628 34.492 87.204 34.6253 87.6946 34.892C88.196 35.1587 88.596 35.4947 88.8946 35.9V34.636H91.1506V43.5H88.8946V42.204C88.6066 42.62 88.2066 42.9667 87.6946 43.244C87.1933 43.5107 86.612 43.644 85.9506 43.644C85.204 43.644 84.5213 43.452 83.9026 43.068C83.2946 42.684 82.8093 42.1453 82.4466 41.452C82.0946 40.748 81.9186 39.9427 81.9186 39.036ZM88.8946 39.068C88.8946 38.524 88.788 38.06 88.5746 37.676C88.3613 37.2813 88.0733 36.9827 87.7106 36.78C87.348 36.5667 86.9586 36.46 86.5426 36.46C86.1266 36.46 85.7426 36.5613 85.3906 36.764C85.0386 36.9667 84.7506 37.2653 84.5266 37.66C84.3133 38.044 84.2066 38.5027 84.2066 39.036C84.2066 39.5693 84.3133 40.0387 84.5266 40.444C84.7506 40.8387 85.0386 41.1427 85.3906 41.356C85.7533 41.5693 86.1373 41.676 86.5426 41.676C86.9586 41.676 87.348 41.5747 87.7106 41.372C88.0733 41.1587 88.3613 40.86 88.5746 40.476C88.788 40.0813 88.8946 39.612 88.8946 39.068ZM98.2504 34.508C99.3064 34.508 100.16 34.844 100.81 35.516C101.461 36.1773 101.786 37.1053 101.786 38.3V43.5H99.5464V38.604C99.5464 37.9 99.3704 37.3613 99.0184 36.988C98.6664 36.604 98.1864 36.412 97.5784 36.412C96.9597 36.412 96.469 36.604 96.1064 36.988C95.7544 37.3613 95.5784 37.9 95.5784 38.604V43.5H93.3384V34.636H95.5784V35.74C95.877 35.356 96.2557 35.0573 96.7144 34.844C97.1837 34.62 97.6957 34.508 98.2504 34.508Z" fill="#5F3B00"/>
<defs>
<clipPath id="clip0_0_244">
<rect width="30" height="30" fill="white" transform="translate(10 13.5)"/>
</clipPath>
</defs>
</svg>
